<svg width="18" height="18" viewBox="0 0 18 18" fill="none" xmlns="http://www.w3.org/2000/svg">
<path d="M17.1201 9.051C17.1204 7.44564 16.6762 5.8738 15.84 4.52159C15.0038 3.16939 13.8106 2.09345 12.4018 1.42118C10.993 0.748912 9.42751 0.508467 7.89073 0.728317C6.35394 0.948166 4.91023 1.6191 3.73052 2.66168C2.55081 3.70426 1.68452 5.07482 1.23423 6.61107C0.783931 8.14732 0.768489 9.78492 1.18973 11.33C1.61097 12.875 2.45125 14.2628 3.61107 15.329C4.7709 16.3952 6.20169 17.0952 7.73403 17.346V11.4786H5.67316V9.051H7.73403V7.19985C7.68966 6.76772 7.73768 6.33078 7.8747 5.92C8.01171 5.50922 8.23437 5.13465 8.52688 4.82284C8.8194 4.51104 9.17461 4.26962 9.56734 4.11572C9.96008 3.96181 10.3807 3.89918 10.7995 3.93225C11.4083 3.94053 12.0157 3.99528 12.6168 4.09605V6.1656H11.594C11.4197 6.14203 11.2426 6.15929 11.0757 6.21612C10.9088 6.27295 10.7564 6.3679 10.6297 6.49392C10.503 6.61995 10.4054 6.77384 10.344 6.94419C10.2825 7.11455 10.2589 7.29702 10.2749 7.4781V9.0531H12.5265L12.1663 11.4807H10.2708V17.3513C12.1807 17.0386 13.92 16.0307 15.1757 14.5091C16.4314 12.9874 17.1208 11.0519 17.1201 9.051Z" fill="#F3F4F8"/>
</svg>
