<svg width="17" height="18" viewBox="0 0 17 18" fill="none" xmlns="http://www.w3.org/2000/svg">
<path d="M12.9136 5.745C13.4516 5.745 13.8877 5.29371 13.8877 4.737C13.8877 4.1803 13.4516 3.729 12.9136 3.729C12.3756 3.729 11.9395 4.1803 11.9395 4.737C11.9395 5.29371 12.3756 5.745 12.9136 5.745Z" fill="#F3F4F8"/>
<path d="M8.70726 13.2503C6.46882 13.2503 4.64844 11.3666 4.64844 9.05034C4.64844 6.73404 6.46882 4.85034 8.70726 4.85034C10.9457 4.85034 12.7661 6.73404 12.7661 9.05034C12.7661 11.3666 10.9457 13.2503 8.70726 13.2503ZM8.70726 6.95034C7.58804 6.95034 6.67785 7.89219 6.67785 9.05034C6.67785 10.2085 7.58804 11.1503 8.70726 11.1503C9.82648 11.1503 10.7367 10.2085 10.7367 9.05034C10.7367 7.89219 9.82648 6.95034 8.70726 6.95034Z" fill="#F3F4F8"/>
<path d="M12.7663 17.4504H4.64867C2.56243 17.4504 0.589844 15.4092 0.589844 13.2504V4.85039C0.589844 2.69159 2.56243 0.650391 4.64867 0.650391H12.7663C14.8525 0.650391 16.8251 2.69159 16.8251 4.85039V13.2504C16.8251 15.4092 14.8525 17.4504 12.7663 17.4504ZM4.64867 2.75039C3.69992 2.75039 2.61926 3.86864 2.61926 4.85039V13.2504C2.61926 14.251 3.68165 15.3504 4.64867 15.3504H12.7663C13.7151 15.3504 14.7957 14.2321 14.7957 13.2504V4.85039C14.7957 3.86864 13.7151 2.75039 12.7663 2.75039H4.64867Z" fill="#F3F4F8"/>
</svg>
