<svg width="17" height="15" viewBox="0 0 17 15" fill="none" xmlns="http://www.w3.org/2000/svg">
<path d="M16.413 2.2752C15.8042 2.5902 15.1954 2.6952 14.4851 2.8002C15.1954 2.3802 15.7027 1.7502 15.9057 0.910195C15.2969 1.3302 14.5866 1.5402 13.7748 1.7502C13.166 1.1202 12.2527 0.700195 11.3395 0.700195C9.6145 0.700195 8.09244 2.2752 8.09244 4.1652C8.09244 4.4802 8.09244 4.6902 8.19391 4.9002C5.45421 4.7952 2.91744 3.4302 1.29391 1.3302C0.989499 1.8552 0.888029 2.3802 0.888029 3.1152C0.888029 4.2702 1.49685 5.3202 2.41009 5.9502C1.90273 5.9502 1.39538 5.74019 0.888029 5.53019C0.888029 7.2102 2.0042 8.5752 3.52626 8.89019C3.22185 8.9952 2.91744 8.99519 2.61303 8.99519C2.41009 8.99519 2.20715 8.9952 2.0042 8.89019C2.41009 10.2552 3.62773 11.3052 5.14979 11.3052C4.03362 12.2502 2.61303 12.7752 0.989499 12.7752C0.685087 12.7752 0.482146 12.7752 0.177734 12.7752C1.69979 13.7202 3.42479 14.3502 5.25126 14.3502C11.3395 14.3502 14.688 9.10019 14.688 4.58519C14.688 4.4802 14.688 4.2702 14.688 4.1652C15.3983 3.6402 16.0071 3.0102 16.413 2.2752Z" fill="#F3F4F8"/>
</svg>
